<svg width="50" height="65" viewBox="0 0 50 65" fill="none" xmlns="http://www.w3.org/2000/svg">
<circle cx="25" cy="62" r="3" fill="#E64848"/>
<path d="M29.8963 49.5207C41.3591 47.2446 50 37.1314 50 25C50 11.1929 38.8071 0 25 0C11.1929 0 0 11.1929 0 25C0 37.1385 8.15214 47.0755 19.625 49.3438C21.2444 49.6639 22.4021 50.6652 23.4688 52.5938C24.5354 54.5223 25 57.4688 25 57.4688C25 57.4688 25.625 54.625 26.4121 52.793C27.1993 50.9611 28.5 50.0625 29.8963 49.5207Z" fill="#E64848"/>
<path fill-rule="evenodd" clip-rule="evenodd" d="M26.8739 22.9034L25.8876 21.1675L24.9012 22.9034H23.175L24.0381 24.4225L23.1751 25.9415H24.9012L25.8875 27.6774L26.8739 25.9415H28.6001L27.737 24.4224L28.6 22.9034H26.8739Z" fill="white"/>
<path fill-rule="evenodd" clip-rule="evenodd" d="M25.6202 14.0382C23.7649 14.0169 21.9372 14.4893 20.3247 15.4072C18.7121 16.325 17.3726 17.6551 16.4435 19.2612C15.5145 20.8674 15.0293 22.6917 15.0376 24.5471C15.046 26.4025 15.5476 28.2224 16.4911 29.8201C17.4346 31.4178 18.786 32.7358 20.4067 33.6391C22.0275 34.5423 23.8593 34.9983 25.7144 34.9603C27.5695 34.9223 29.3811 34.3916 30.9635 33.4227L33.594 37.7188C31.2497 39.1542 28.5659 39.9404 25.8176 39.9967C23.0694 40.0531 20.3556 39.3775 17.9544 38.0394C15.5533 36.7012 13.5512 34.7485 12.1535 32.3816C10.7557 30.0147 10.0125 27.3186 10.0002 24.5698C9.98778 21.821 10.7066 19.1183 12.083 16.7389C13.4594 14.3595 15.4438 12.3889 17.8328 11.0291C20.2218 9.66939 22.9294 8.96944 25.6781 9.00102C28.4268 9.03261 31.1176 9.79459 33.4747 11.2089L30.8829 15.5285C29.2919 14.5738 27.4756 14.0595 25.6202 14.0382Z" fill="white"/>
<path fill-rule="evenodd" clip-rule="evenodd" d="M23.4768 20.7484C22.9752 21.0189 22.5328 21.3873 22.176 21.8318C21.8192 22.2762 21.5552 22.7877 21.3995 23.336C21.2438 23.8843 21.1997 24.4583 21.2697 25.0239C21.3398 25.5895 21.5225 26.1354 21.8072 26.6292C22.0919 27.1229 22.4727 27.5546 22.9271 27.8986C23.3816 28.2427 23.9004 28.4921 24.4529 28.6321C25.0054 28.7721 25.5803 28.7999 26.1438 28.7138C26.7072 28.6277 27.2476 28.4295 27.7331 28.1309L30.3723 32.4217C29.3131 33.0732 28.1339 33.5057 26.9046 33.6935C25.6754 33.8813 24.4209 33.8207 23.2154 33.5152C22.01 33.2097 20.878 32.6656 19.8865 31.915C18.8951 31.1644 18.0642 30.2226 17.4431 29.1453C16.822 28.0679 16.4232 26.877 16.2704 25.6428C16.1176 24.4087 16.2139 23.1565 16.5535 21.9602C16.8932 20.7639 17.4693 19.6479 18.2478 18.6782C19.0263 17.7084 19.9913 16.9047 21.0859 16.3145L23.4768 20.7484Z" fill="#CCB17E"/>
</svg>
